<svg width="64" height="64" viewBox="0 0 100 100" fill="none" xmlns="http://www.w3.org/2000/svg">
  <rect width="100" height="100" rx="16" fill="#0B1F3C"/>
  <g stroke="#14999C" stroke-width="3" stroke-linejoin="round" stroke-linecap="round">
    <path d="M 50 15 L 18 90 L 32 90 L 41 68 L 50 68" fill="none"/>
    <line x1="50" y1="15" x2="35" y2="52" stroke-width="2"/>
    <line x1="35" y1="52" x2="18" y2="90" stroke-width="2"/>
    <line x1="35" y1="52" x2="32" y2="90" stroke-width="2"/>
    <line x1="35" y1="52" x2="41" y2="68" stroke-width="2"/>
    <path d="M 50 15 L 65 52 L 57 68 L 64 90 L 78 90 L 68 55 Z" fill="none"/>
    <line x1="68" y1="55" x2="64" y2="90" stroke-width="2"/>
    <line x1="68" y1="55" x2="78" y2="90" stroke-width="2"/>
    <polygon points="32,76 72,36 78,42 38,82" fill="none" stroke-width="2.5"/>
    <path d="M 66 32 L 90 20 L 78 44 Z" fill="none" stroke-width="3"/>
    <line x1="78" y1="32" x2="90" y2="20" stroke-width="2.5"/>
    <line x1="41" y1="68" x2="57" y2="68" stroke-width="2.5"/>
  </g>
</svg>